<svg width="755" height="216" viewBox="0 0 755 216" fill="none" xmlns="http://www.w3.org/2000/svg">
<path fill-rule="evenodd" clip-rule="evenodd" d="M154.286 108C154.286 133.563 133.563 154.286 108 154.286C82.4371 154.286 61.7143 133.563 61.7143 108C61.7143 82.4371 82.4371 61.7143 108 61.7143V0C48.3532 0 0 48.3532 0 108C0 167.647 48.3532 216 108 216C167.647 216 216 167.647 216 108H154.286Z" fill="#8800FF"/>
<path fill-rule="evenodd" clip-rule="evenodd" d="M491.5 154.286C516.945 154.286 537.571 133.563 537.571 108C537.571 82.4371 516.945 61.7143 491.5 61.7143C466.055 61.7143 445.429 82.4371 445.429 108C445.429 133.563 466.055 154.286 491.5 154.286ZM491.5 216C550.871 216 599 167.647 599 108C599 48.3532 550.871 0 491.5 0C432.129 0 384 48.3532 384 108C384 167.647 432.129 216 491.5 216Z" fill="#8800FF"/>
<path d="M154 0H216V62H172.6C162.328 62 154 53.6725 154 43.4V0Z" fill="#2B0051"/>
<path fill-rule="evenodd" clip-rule="evenodd" d="M630 154.857C655.474 154.857 691.5 134.326 691.5 109H753C753 168.094 689.44 216 630 216L630 154.857Z" fill="#8800FF"/>
<path fill-rule="evenodd" clip-rule="evenodd" d="M691.728 109L630 109C630 48.8316 678.315 0.0496887 737.934 -1.06058e-05L755 -1.13518e-05L755 62.2857C729.431 62.2857 691.728 83.2004 691.728 109Z" fill="#8800FF"/>
<path fill-rule="evenodd" clip-rule="evenodd" d="M307.286 0H245V107.691V108H245C245.167 167.675 293.732 216 354 216V154.594C328.126 154.594 307.286 133.327 307.286 107.691V0Z" fill="#8800FF"/>
</svg>
