<svg width="858" height="216" viewBox="0 0 858 216" fill="none" xmlns="http://www.w3.org/2000/svg">
<path fill-rule="evenodd" clip-rule="evenodd" d="M154.286 108C154.286 133.563 133.563 154.286 108 154.286C82.4371 154.286 61.7143 133.563 61.7143 108C61.7143 82.4371 82.4371 61.7143 108 61.7143V0C48.3532 0 0 48.3532 0 108C0 167.647 48.3532 216 108 216C167.647 216 216 167.647 216 108H154.286Z" fill="black"/>
<path fill-rule="evenodd" clip-rule="evenodd" d="M491.5 154.286C516.945 154.286 537.571 133.563 537.571 108C537.571 82.4371 516.945 61.7143 491.5 61.7143C466.055 61.7143 445.429 82.4371 445.429 108C445.429 133.563 466.055 154.286 491.5 154.286ZM491.5 216C550.871 216 599 167.647 599 108C599 48.3532 550.871 0 491.5 0C432.129 0 384 48.3532 384 108C384 167.647 432.129 216 491.5 216Z" fill="black"/>
<path d="M154 0H216V62H172.6C162.328 62 154 53.6725 154 43.4V0Z" fill="#8800ff"/>
<path fill-rule="evenodd" clip-rule="evenodd" d="M630 154.857C655.474 154.857 691.5 134.326 691.5 109H753C753 168.094 689.44 216 630 216L630 154.857Z" fill="black"/>
<path fill-rule="evenodd" clip-rule="evenodd" d="M691.728 109L630 109C630 48.8316 678.315 0.0496887 737.934 -1.06058e-05L755 -1.13518e-05L755 62.2857C729.431 62.2857 691.728 83.2004 691.728 109Z" fill="black"/>
<path fill-rule="evenodd" clip-rule="evenodd" d="M307.286 0H245V107.691V108H245C245.167 167.675 293.732 216 354 216V154.594C328.126 154.594 307.286 133.327 307.286 107.691V0Z" fill="black"/>
<path d="M848.622 208.481C847.265 208.481 846.056 208.137 844.994 207.449C843.952 206.741 843.126 205.777 842.517 204.558C841.907 203.32 841.603 201.914 841.603 200.341C841.603 198.768 841.907 197.372 842.517 196.153C843.126 194.914 843.962 193.941 845.024 193.233C846.085 192.525 847.304 192.172 848.681 192.172C849.389 192.172 850.067 192.28 850.716 192.496C851.365 192.712 851.954 193.007 852.485 193.381C853.016 193.754 853.449 194.187 853.783 194.678C854.117 195.15 854.314 195.642 854.373 196.153L853.252 196.418V186.332H858V208.156H853.606L853.341 204.588L854.284 204.735C854.225 205.227 854.029 205.699 853.694 206.151C853.38 206.603 852.967 207.006 852.456 207.36C851.945 207.694 851.355 207.96 850.686 208.156C850.037 208.373 849.349 208.481 848.622 208.481ZM849.831 204.558C850.558 204.558 851.188 204.381 851.718 204.027C852.249 203.674 852.652 203.182 852.928 202.553C853.223 201.924 853.37 201.186 853.37 200.341C853.37 199.476 853.223 198.729 852.928 198.1C852.652 197.47 852.249 196.979 851.718 196.625C851.188 196.271 850.558 196.094 849.831 196.094C849.103 196.094 848.474 196.271 847.943 196.625C847.432 196.979 847.029 197.47 846.734 198.1C846.439 198.729 846.292 199.476 846.292 200.341C846.292 201.186 846.439 201.924 846.734 202.553C847.029 203.182 847.432 203.674 847.943 204.027C848.474 204.381 849.103 204.558 849.831 204.558Z" fill="#8800ff"/>
<path d="M814.295 208.159V192.498H818.778L818.925 195.329L818.306 195.359C818.542 194.848 818.837 194.395 819.191 194.002C819.564 193.609 819.977 193.285 820.429 193.029C820.901 192.754 821.383 192.547 821.874 192.41C822.386 192.272 822.897 192.203 823.408 192.203C824.175 192.203 824.873 192.321 825.502 192.557C826.131 192.793 826.682 193.176 827.154 193.707C827.625 194.218 827.999 194.916 828.274 195.801L827.537 195.742L827.773 195.27C828.029 194.798 828.353 194.376 828.746 194.002C829.159 193.609 829.611 193.285 830.103 193.029C830.594 192.754 831.106 192.547 831.636 192.41C832.167 192.272 832.679 192.203 833.17 192.203C834.409 192.203 835.441 192.449 836.267 192.94C837.093 193.412 837.712 194.13 838.125 195.093C838.557 196.057 838.774 197.227 838.774 198.603V208.159H834.025V198.986C834.025 198.357 833.937 197.836 833.76 197.423C833.583 197.01 833.318 196.706 832.964 196.509C832.629 196.293 832.207 196.185 831.695 196.185C831.283 196.185 830.899 196.253 830.545 196.391C830.211 196.529 829.916 196.715 829.66 196.951C829.425 197.187 829.238 197.463 829.1 197.777C828.962 198.092 828.894 198.446 828.894 198.839V208.159H824.145V198.957C824.145 198.367 824.057 197.866 823.88 197.453C823.703 197.04 823.438 196.725 823.084 196.509C822.73 196.293 822.317 196.185 821.845 196.185C821.432 196.185 821.049 196.253 820.695 196.391C820.361 196.529 820.066 196.715 819.81 196.951C819.574 197.187 819.387 197.463 819.25 197.777C819.112 198.092 819.043 198.436 819.043 198.809V208.159H814.295Z" fill="#8800ff"/>
<path d="M805.125 208.452C803.611 208.452 802.254 208.098 801.055 207.39C799.856 206.682 798.902 205.719 798.194 204.5C797.506 203.261 797.162 201.865 797.162 200.312C797.162 198.759 797.506 197.372 798.194 196.153C798.902 194.915 799.856 193.941 801.055 193.234C802.254 192.526 803.611 192.172 805.125 192.172C806.521 192.172 807.799 192.418 808.959 192.909C810.139 193.401 811.073 194.089 811.761 194.974L809.195 198.041C808.92 197.726 808.595 197.431 808.222 197.156C807.848 196.881 807.435 196.665 806.983 196.507C806.531 196.35 806.059 196.271 805.567 196.271C804.82 196.271 804.162 196.448 803.591 196.802C803.021 197.136 802.579 197.608 802.264 198.218C801.95 198.827 801.792 199.525 801.792 200.312C801.792 201.059 801.95 201.737 802.264 202.347C802.599 202.956 803.051 203.438 803.621 203.792C804.191 204.146 804.84 204.323 805.567 204.323C806.079 204.323 806.551 204.264 806.983 204.146C807.416 204.008 807.809 203.812 808.163 203.556C808.536 203.3 808.88 202.986 809.195 202.612L811.731 205.709C811.063 206.554 810.129 207.223 808.93 207.714C807.75 208.206 806.482 208.452 805.125 208.452Z" fill="#8800ff"/>
<path d="M775.476 214.943L778.602 207.717L778.631 210.135L770.904 192.676H774.443L779.28 204.06C779.378 204.256 779.496 204.561 779.634 204.974C779.772 205.367 779.89 205.761 779.988 206.154L779.221 206.331C779.378 205.918 779.526 205.505 779.664 205.092C779.821 204.679 779.968 204.266 780.106 203.853L784.146 192.676H787.744L781.374 208.159L778.749 214.943H775.476Z" fill="#8800ff"/>
<path d="M763.019 208.451C762.351 208.451 761.682 208.343 761.014 208.127C760.365 207.911 759.765 207.626 759.215 207.272C758.684 206.898 758.232 206.495 757.858 206.062C757.504 205.61 757.268 205.158 757.15 204.706L757.917 204.293V208.068H754.879V186.332H757.917V196.212L757.445 195.947C757.544 195.494 757.76 195.062 758.094 194.649C758.428 194.216 758.851 193.833 759.362 193.499C759.893 193.145 760.463 192.87 761.073 192.673C761.682 192.457 762.302 192.348 762.931 192.348C764.327 192.348 765.565 192.693 766.647 193.381C767.728 194.069 768.584 195.022 769.213 196.241C769.842 197.441 770.156 198.817 770.156 200.37C770.156 201.924 769.842 203.31 769.213 204.529C768.603 205.748 767.758 206.711 766.676 207.419C765.595 208.107 764.376 208.451 763.019 208.451ZM762.518 205.679C763.422 205.679 764.228 205.453 764.936 205.001C765.644 204.529 766.204 203.9 766.617 203.113C767.03 202.307 767.237 201.393 767.237 200.37C767.237 199.368 767.03 198.473 766.617 197.687C766.224 196.88 765.674 196.251 764.966 195.799C764.258 195.347 763.442 195.121 762.518 195.121C761.594 195.121 760.778 195.347 760.07 195.799C759.362 196.251 758.802 196.88 758.389 197.687C757.976 198.473 757.77 199.368 757.77 200.37C757.77 201.393 757.976 202.307 758.389 203.113C758.802 203.9 759.362 204.529 760.07 205.001C760.778 205.453 761.594 205.679 762.518 205.679Z" fill="#8800ff"/>
</svg>
